<?xml version="1.0" encoding="UTF-8"?>
<svg id="Layer_1" xmlns="http://www.w3.org/2000/svg" xmlns:xlink="http://www.w3.org/1999/xlink" version="1.1" viewBox="0 0 1200 1200">
  <!-- Generator: Adobe Illustrator 29.0.1, SVG Export Plug-In . SVG Version: 2.1.0 Build 192)  -->
  <defs>
    <style>
      .st0, .st1, .st2, .st3, .st4, .st5 {
        fill: none;
      }

      .st6 {
        fill: #eaeaea;
      }

      .st7 {
        isolation: isolate;
      }

      .st1 {
        stroke: url(#linear-gradient);
      }

      .st1, .st2, .st3, .st4, .st5 {
        stroke-width: 2.4px;
      }

      .st8 {
        fill: #666;
        fill-rule: evenodd;
      }

      .st9 {
        fill: #fff;
      }

      .st10 {
        fill: #fafafa;
      }

      .st2 {
        stroke: url(#linear-gradient1);
      }

      .st3 {
        stroke: url(#linear-gradient2);
      }

      .st4 {
        stroke: url(#linear-gradient3);
      }

      .st11 {
        opacity: .5;
      }

      .st5 {
        stroke: #c9c9c9;
      }

      .st12 {
        clip-path: url(#clippath);
      }
    </style>
    <linearGradient id="linear-gradient" x1="982.2" y1="677.6" x2="427.7" y2="677.6" gradientTransform="translate(582 1578.8) rotate(-45) scale(1 -1)" gradientUnits="userSpaceOnUse">
      <stop offset="0" stop-color="#c9c9c9" stop-opacity="0"/>
      <stop offset=".2" stop-color="#c9c9c9"/>
      <stop offset=".8" stop-color="#c9c9c9"/>
      <stop offset="1" stop-color="#c9c9c9" stop-opacity="0"/>
    </linearGradient>
    <linearGradient id="linear-gradient1" x1="796.5" y1="242.7" x2="404.1" y2="242.7" gradientTransform="translate(0 356)" gradientUnits="userSpaceOnUse">
      <stop offset="0" stop-color="#c9c9c9" stop-opacity="0"/>
      <stop offset=".2" stop-color="#c9c9c9"/>
      <stop offset=".8" stop-color="#c9c9c9"/>
      <stop offset="1" stop-color="#c9c9c9" stop-opacity="0"/>
    </linearGradient>
    <linearGradient id="linear-gradient2" x1="599.5" y1="48" x2="599.5" y2="440.4" gradientTransform="translate(0 356)" gradientUnits="userSpaceOnUse">
      <stop offset="0" stop-color="#c9c9c9" stop-opacity="0"/>
      <stop offset=".2" stop-color="#c9c9c9"/>
      <stop offset=".8" stop-color="#c9c9c9"/>
      <stop offset="1" stop-color="#c9c9c9" stop-opacity="0"/>
    </linearGradient>
    <linearGradient id="linear-gradient3" x1="404.3" y1="49.2" x2="796.4" y2="441.3" gradientTransform="translate(0 356)" gradientUnits="userSpaceOnUse">
      <stop offset="0" stop-color="#c9c9c9" stop-opacity="0"/>
      <stop offset=".2" stop-color="#c9c9c9"/>
      <stop offset=".8" stop-color="#c9c9c9"/>
      <stop offset="1" stop-color="#c9c9c9" stop-opacity="0"/>
    </linearGradient>
    <clipPath id="clippath">
      <rect class="st0" x="581.4" y="580.5" width="38.7" height="38.7"/>
    </clipPath>
  </defs>
  <rect class="st6" y="0" width="1200" height="1200" rx="3" ry="3"/>
  <g class="st11">
    <g class="st11">
      <path class="st10" d="M600.7,736.5c-75.5,0-136.6-61.2-136.6-136.6s61.2-136.6,136.6-136.6,136.6,61.2,136.6,136.6-61.2,136.6-136.6,136.6h0Z"/>
      <path class="st5" d="M600.7,736.5c-75.5,0-136.6-61.2-136.6-136.6s61.2-136.6,136.6-136.6,136.6,61.2,136.6,136.6-61.2,136.6-136.6,136.6h0Z"/>
    </g>
    <path class="st1" d="M406,796.6l391.4-391.4"/>
    <path class="st2" d="M404.8,598.7h391.7"/>
    <path class="st3" d="M599.5,795.7v-391.7"/>
    <path class="st4" d="M795.7,796.6l-391.4-391.4"/>
    <path class="st9" d="M600.7,656.7c-31.4,0-56.8-25.4-56.8-56.8s25.4-56.8,56.8-56.8,56.8,25.4,56.8,56.8-25.4,56.8-56.8,56.8Z"/>
    <g class="st12">
      <path class="st8" d="M616.4,586.6h-31.4v16.2l3.6-3.6.5-.5h9.1l8.5-8.5h2.6l7.2,7.2v-10.7h0ZM600.7,601.2l3.7,3.7,1.3,1.3-2.6,2.6-1.3-1.3-5.2-5.2h-6.1l-5.5,5.5h0v2.9c0,1.3,1.1,2.4,2.4,2.4h26.6c1.3,0,2.4-1.1,2.4-2.4h0v-8.3l-8.5-8.5-7.2,7.2h0ZM581.4,606.7v4.1c0,3.3,2.7,6,6,6h26.6c3.3,0,6-2.7,6-6h0v-7.1l1.4-1.4-1.3-1.3h0v-18.1h-38.7v23.4h0c0,0,0,.3,0,.3h0Z"/>
    </g>
    <path class="st5" d="M600.7,656.7c-31.4,0-56.8-25.4-56.8-56.8s25.4-56.8,56.8-56.8,56.8,25.4,56.8,56.8-25.4,56.8-56.8,56.8Z"/>
  </g>
  <image class="st7" width="2048" height="1152" transform="translate(-442.2 -66.1) scale(.9 1.1)" xlink:href="../../../../../../Users/gonzalogutierrez/Desktop/relaxedsite/fondo_web_encabezado.png"/>
</svg>